<?xml version="1.0" encoding="UTF-8" standalone="no"?>
<svg
   xmlns:dc="http://purl.org/dc/elements/1.1/"
   xmlns:cc="http://creativecommons.org/ns#"
   xmlns:rdf="http://www.w3.org/1999/02/22-rdf-syntax-ns#"
   xmlns:svg="http://www.w3.org/2000/svg"
   xmlns="http://www.w3.org/2000/svg"
   xmlns:sodipodi="http://sodipodi.sourceforge.net/DTD/sodipodi-0.dtd"
   xmlns:inkscape="http://www.inkscape.org/namespaces/inkscape"
   id="SVGDoc"
   width="512"
   height="512"
   version="1.1"
   viewBox="0 0 512 512"
   sodipodi:docname="icon-youtube.svg"
   inkscape:version="0.92.5 (2060ec1f9f, 2020-04-08)">
  <metadata
     id="metadata17">
    <rdf:RDF>
      <cc:Work
         rdf:about="">
        <dc:format>image/svg+xml</dc:format>
        <dc:type
           rdf:resource="http://purl.org/dc/dcmitype/StillImage" />
        <dc:title></dc:title>
      </cc:Work>
    </rdf:RDF>
  </metadata>
  <sodipodi:namedview
     pagecolor="#ffffff"
     bordercolor="#666666"
     borderopacity="1"
     objecttolerance="10"
     gridtolerance="10"
     guidetolerance="10"
     inkscape:pageopacity="0"
     inkscape:pageshadow="2"
     inkscape:window-width="1080"
     inkscape:window-height="1883"
     id="namedview15"
     showgrid="false"
     inkscape:zoom="0.10845588"
     inkscape:cx="2491.2447"
     inkscape:cy="6416.6753"
     inkscape:window-x="0"
     inkscape:window-y="0"
     inkscape:window-maximized="1"
     inkscape:current-layer="SVGDoc" />
  <defs
     id="defs2" />
  <desc
     id="desc4">Generated with Avocode.</desc>
  <path
     d="m 203.63578,180.23617 133.8177,76.12951 -133.8177,76.12581 z M 501.30119,132.3281 C 495.41287,110.15632 478.06336,92.69438 456.03502,86.7685 416.107,76.00049 256,76.00049 256,76.00049 c 0,0 -160.106131,0 -200.03502,10.76801 C 33.936641,92.69525 16.587133,110.15632 10.698805,132.3281 0,172.5157 0,256.36372 0,256.36372 c 0,0 0,83.84781 10.698805,124.03562 5.888328,22.17178 23.237836,38.90606 45.266175,44.83216 C 95.894087,435.99951 256,435.99951 256,435.99951 c 0,0 160.10613,0 200.03502,-10.76801 22.02834,-5.92588 39.37785,-22.66016 45.26617,-44.83216 C 512,340.21174 512,256.36372 512,256.36372 c 0,0 0,-83.84781 -10.69881,-124.03562 z"
     id="path8"
     inkscape:connector-curvature="0"
     style="fill:#000000;fill-opacity:1;stroke-width:21.8320694" />
</svg>
