<svg xmlns="http://www.w3.org/2000/svg" xmlns:svg="http://www.w3.org/2000/svg" id="SVGDoc" width="512" height="512" version="1.1" viewBox="0 0 512 512"><metadata id="metadata33"/><desc id="desc4">Generated with Avocode.</desc><path style="color:#000;font-style:normal;font-variant:normal;font-weight:400;font-stretch:normal;font-size:medium;line-height:normal;font-family:sans-serif;font-variant-ligatures:normal;font-variant-position:normal;font-variant-caps:normal;font-variant-numeric:normal;font-variant-alternates:normal;font-feature-settings:normal;text-indent:0;text-align:start;text-decoration:none;text-decoration-line:none;text-decoration-style:solid;text-decoration-color:#000;letter-spacing:normal;word-spacing:normal;text-transform:none;writing-mode:lr-tb;direction:ltr;text-orientation:mixed;dominant-baseline:auto;baseline-shift:baseline;text-anchor:start;white-space:normal;shape-padding:0;clip-rule:nonzero;display:inline;overflow:visible;visibility:visible;opacity:1;isolation:auto;mix-blend-mode:normal;color-interpolation:sRGB;color-interpolation-filters:linearRGB;solid-color:#000;solid-opacity:1;vector-effect:none;fill:#000;fill-opacity:1;fill-rule:nonzero;stroke:none;stroke-width:45.63346481;stroke-linecap:round;stroke-linejoin:round;stroke-miterlimit:20;stroke-dasharray:none;stroke-dashoffset:0;stroke-opacity:1;color-rendering:auto;image-rendering:auto;shape-rendering:auto;text-rendering:auto;enable-background:accumulate" id="path10" d="M 255.64349,0.00278337 A 22.819014,22.819014 0 0 0 233.18327,23.13142 v 271.66173 l -97.19394,-97.19381 a 22.819014,22.819014 0 0 0 -16.35496,-6.90754 22.819014,22.819014 0 0 0 -15.90932,39.17177 l 134.13743,134.13729 a 22.819014,22.819014 0 0 0 36.31961,-0.0445 l 134.09286,-134.0928 a 22.819014,22.819014 0 1 0 -32.26427,-32.26423 l -97.19395,97.19381 V 23.13142 A 22.819014,22.819014 0 0 0 255.64349,0.00278337 Z M 65.40006,466.36425 a 22.819014,22.819014 0 1 0 0,45.63347 h 273.97906 107.22082 a 22.819014,22.819014 0 1 0 0,-45.63347 H 339.37912 Z"/></svg>