<svg xmlns="http://www.w3.org/2000/svg" xmlns:svg="http://www.w3.org/2000/svg" id="SVGDoc" width="512" height="512" version="1.1" viewBox="0 0 512 512"><metadata id="metadata17"/><desc id="desc4">Generated with Avocode.</desc><path id="path8" d="M 511.88576,511.99389 H 405.96586 V 345.594 c 0,-39.65703 -0.79997,-90.51416 -55.18864,-90.51416 -55.18864,0 -63.64584,43.08566 -63.64584,87.65702 V 511.99389 H 181.09693 V 170.16572 h 101.80585 v 46.62854 h 1.48569 C 298.55996,189.93727 333.17709,161.59429 384.82286,161.59429 492.25142,161.59429 512,232.33691 512,324.22253 V 511.99359 Z M 61.474421,123.53719 C 27.531683,123.53719 0,95.422974 0,61.480236 0,27.528849 27.523033,0.00611457 61.474421,0.00611457 c 33.951387,0 61.474419,27.52303243 61.474419,61.47412143 0,33.942738 -27.543016,62.056954 -61.474419,62.056954 z m 53.131459,388.4567 H 8.4571994 V 170.16572 H 114.60588 Z" style="fill:#000;fill-opacity:1;stroke-width:29.82718277"/></svg>