<svg xmlns="http://www.w3.org/2000/svg" xmlns:svg="http://www.w3.org/2000/svg" id="SVGDoc" width="512" height="512" version="1.1" viewBox="0 0 512 512"><metadata id="metadata17"/><desc id="desc4">Generated with Avocode.</desc><path id="path8" d="m 203.63578,180.23617 133.8177,76.12951 -133.8177,76.12581 z M 501.30119,132.3281 C 495.41287,110.15632 478.06336,92.69438 456.03502,86.7685 416.107,76.00049 256,76.00049 256,76.00049 c 0,0 -160.106131,0 -200.03502,10.76801 C 33.936641,92.69525 16.587133,110.15632 10.698805,132.3281 0,172.5157 0,256.36372 0,256.36372 c 0,0 0,83.84781 10.698805,124.03562 5.888328,22.17178 23.237836,38.90606 45.266175,44.83216 C 95.894087,435.99951 256,435.99951 256,435.99951 c 0,0 160.10613,0 200.03502,-10.76801 22.02834,-5.92588 39.37785,-22.66016 45.26617,-44.83216 C 512,340.21174 512,256.36372 512,256.36372 c 0,0 0,-83.84781 -10.69881,-124.03562 z" style="fill:#000;fill-opacity:1;stroke-width:21.8320694"/></svg>