<?xml version="1.0" encoding="UTF-8" standalone="no"?>
<svg
   xmlns:dc="http://purl.org/dc/elements/1.1/"
   xmlns:cc="http://creativecommons.org/ns#"
   xmlns:rdf="http://www.w3.org/1999/02/22-rdf-syntax-ns#"
   xmlns:svg="http://www.w3.org/2000/svg"
   xmlns="http://www.w3.org/2000/svg"
   xmlns:sodipodi="http://sodipodi.sourceforge.net/DTD/sodipodi-0.dtd"
   xmlns:inkscape="http://www.inkscape.org/namespaces/inkscape"
   id="SVGDoc"
   width="512"
   height="512"
   version="1.1"
   viewBox="0 0 512 512"
   sodipodi:docname="icon-twitter.svg"
   inkscape:version="0.92.5 (2060ec1f9f, 2020-04-08)">
  <metadata
     id="metadata17">
    <rdf:RDF>
      <cc:Work
         rdf:about="">
        <dc:format>image/svg+xml</dc:format>
        <dc:type
           rdf:resource="http://purl.org/dc/dcmitype/StillImage" />
        <dc:title></dc:title>
      </cc:Work>
    </rdf:RDF>
  </metadata>
  <sodipodi:namedview
     pagecolor="#ffffff"
     bordercolor="#666666"
     borderopacity="1"
     objecttolerance="10"
     gridtolerance="10"
     guidetolerance="10"
     inkscape:pageopacity="0"
     inkscape:pageshadow="2"
     inkscape:window-width="1080"
     inkscape:window-height="1883"
     id="namedview15"
     showgrid="false"
     inkscape:zoom="14.75"
     inkscape:cx="10"
     inkscape:cy="8"
     inkscape:window-x="0"
     inkscape:window-y="0"
     inkscape:window-maximized="1"
     inkscape:current-layer="SVGDoc" />
  <defs
     id="defs2" />
  <desc
     id="desc4">Generated with Avocode.</desc>
  <path
     d="m 511.99972,97.051423 c -18.87846,8.354367 -39.05914,13.996027 -60.32468,16.600197 21.69943,-13.01971 38.40817,-33.634277 46.22011,-58.154677 -20.28922,12.04311 -42.74817,20.83165 -66.72614,25.49699 -19.20408,-20.50603 -46.54545,-33.308657 -76.70779,-33.308657 -58.04614,0 -105.02576,47.087887 -105.02576,105.134024 0,8.24583 0.86805,16.27457 2.71243,23.97797 C 164.80718,172.45727 87.340151,130.57744 35.586646,66.889363 26.581305,82.404423 21.37353,100.52364 21.37353,119.72772 c 0,36.45526 18.661654,68.67878 46.871079,87.55751 -17.35971,-0.43361 -33.634283,-5.20777 -47.738857,-13.12825 0,0.43361 0,0.86723 0,1.30084 0,50.99371 36.23817,93.41626 84.302648,103.07257 -8.788256,2.38625 -18.119221,3.68902 -27.666992,3.68902 -6.726801,0 -13.345337,-0.6518 -19.746515,-1.95264 13.345338,41.77157 52.187397,72.15072 98.190417,73.01877 -35.91282,28.20943 -81.264596,45.02643 -130.522479,45.02643 -8.462911,0 -16.8170033,-0.54132 -25.062831,-1.51902 46.328372,30.16234 101.55382,47.52177 160.79336,47.52177 193.45133,0 299.12779,-160.25066 299.12779,-299.23577 0,-4.55681 -0.10772,-9.11388 -0.32535,-13.56215 C 480.10183,136.65272 497.89543,118.20815 512,97.051154 Z"
     id="path8"
     inkscape:connector-curvature="0"
     style="fill:#000000;fill-opacity:1;stroke-width:27.61866188" />
</svg>
