<?xml version="1.0" encoding="UTF-8" standalone="no"?>
<svg
   xmlns:dc="http://purl.org/dc/elements/1.1/"
   xmlns:cc="http://creativecommons.org/ns#"
   xmlns:rdf="http://www.w3.org/1999/02/22-rdf-syntax-ns#"
   xmlns:svg="http://www.w3.org/2000/svg"
   xmlns="http://www.w3.org/2000/svg"
   xmlns:sodipodi="http://sodipodi.sourceforge.net/DTD/sodipodi-0.dtd"
   xmlns:inkscape="http://www.inkscape.org/namespaces/inkscape"
   id="SVGDoc"
   width="512"
   height="512"
   version="1.1"
   viewBox="0 0 512 512"
   sodipodi:docname="icon-linkedin.svg"
   inkscape:version="0.92.5 (2060ec1f9f, 2020-04-08)">
  <metadata
     id="metadata17">
    <rdf:RDF>
      <cc:Work
         rdf:about="">
        <dc:format>image/svg+xml</dc:format>
        <dc:type
           rdf:resource="http://purl.org/dc/dcmitype/StillImage" />
        <dc:title></dc:title>
      </cc:Work>
    </rdf:RDF>
  </metadata>
  <sodipodi:namedview
     pagecolor="#ffffff"
     bordercolor="#666666"
     borderopacity="1"
     objecttolerance="10"
     gridtolerance="10"
     guidetolerance="10"
     inkscape:pageopacity="0"
     inkscape:pageshadow="2"
     inkscape:window-width="1080"
     inkscape:window-height="1883"
     id="namedview15"
     showgrid="false"
     inkscape:zoom="13.111111"
     inkscape:cx="9.1525424"
     inkscape:cy="8.6186441"
     inkscape:window-x="0"
     inkscape:window-y="0"
     inkscape:window-maximized="1"
     inkscape:current-layer="SVGDoc" />
  <defs
     id="defs2" />
  <desc
     id="desc4">Generated with Avocode.</desc>
  <path
     d="M 511.88576,511.99389 H 405.96586 V 345.594 c 0,-39.65703 -0.79997,-90.51416 -55.18864,-90.51416 -55.18864,0 -63.64584,43.08566 -63.64584,87.65702 V 511.99389 H 181.09693 V 170.16572 h 101.80585 v 46.62854 h 1.48569 C 298.55996,189.93727 333.17709,161.59429 384.82286,161.59429 492.25142,161.59429 512,232.33691 512,324.22253 V 511.99359 Z M 61.474421,123.53719 C 27.531683,123.53719 0,95.422974 0,61.480236 0,27.528849 27.523033,0.00611457 61.474421,0.00611457 c 33.951387,0 61.474419,27.52303243 61.474419,61.47412143 0,33.942738 -27.543016,62.056954 -61.474419,62.056954 z m 53.131459,388.4567 H 8.4571994 V 170.16572 H 114.60588 Z"
     id="path8"
     inkscape:connector-curvature="0"
     style="fill:#000000;fill-opacity:1;stroke-width:29.82718277" />
</svg>
