<svg xmlns="http://www.w3.org/2000/svg" xmlns:svg="http://www.w3.org/2000/svg" id="SVGDoc" width="512" height="512" version="1.1" viewBox="0 0 512 512"><metadata id="metadata38"/><defs id="defs5"><clipPath id="clip-746104af-b46d-4673-b9da-a665f1c0298b"><path id="path2" d="m 0.5,15.44737 v 0 -15.05859 0 h 15.05859 v 0 15.05859 0 z"/></clipPath></defs><desc id="desc7">Generated with Avocode.</desc><path style="color:#000;font-style:normal;font-variant:normal;font-weight:400;font-stretch:normal;font-size:medium;line-height:normal;font-family:sans-serif;font-variant-ligatures:normal;font-variant-position:normal;font-variant-caps:normal;font-variant-numeric:normal;font-variant-alternates:normal;font-feature-settings:normal;text-indent:0;text-align:start;text-decoration:none;text-decoration-line:none;text-decoration-style:solid;text-decoration-color:#000;letter-spacing:normal;word-spacing:normal;text-transform:none;writing-mode:lr-tb;direction:ltr;text-orientation:mixed;dominant-baseline:auto;baseline-shift:baseline;text-anchor:start;white-space:normal;shape-padding:0;clip-rule:nonzero;display:inline;overflow:visible;visibility:visible;opacity:1;isolation:auto;mix-blend-mode:normal;color-interpolation:sRGB;color-interpolation-filters:linearRGB;solid-color:#000;solid-opacity:1;vector-effect:none;fill:#000;fill-opacity:1;fill-rule:nonzero;stroke:none;stroke-width:34.72104645;stroke-linecap:butt;stroke-linejoin:miter;stroke-miterlimit:20;stroke-dasharray:none;stroke-dashoffset:0;stroke-opacity:1;color-rendering:auto;image-rendering:auto;shape-rendering:auto;text-rendering:auto;enable-background:accumulate" id="path19" d="m 220.05828,0 -22.4466,77.105024 c -9.24844,3.045036 -18.16198,6.769215 -26.71893,11.121845 L 100.36563,49.640331 49.572535,100.4334 88.226822,170.89282 c -4.36529,8.55665 -8.088289,17.46954 -11.121585,26.71888 L 1.05e-4,220.12622 v 71.81527 L 77.105237,314.456 c 3.023995,9.22087 6.705738,18.11814 11.053771,26.65118 l -38.586473,70.52713 50.793095,50.79307 70.45931,-38.58654 c 8.55991,4.35749 17.46668,8.07438 26.71893,11.12184 L 220.05829,512 h 71.8156 l 22.58224,-77.10537 c 9.22939,-3.04504 18.11017,-6.71123 26.65113,-11.05379 l 70.52712,38.58654 50.79307,-50.79307 -38.58647,-70.52713 c 4.34805,-8.53304 8.02976,-17.43031 11.05378,-26.65118 l 77.10513,-22.51451 V 278.9211 220.12622 L 434.89476,197.6117 c -3.03323,-9.24899 -6.7563,-18.16188 -11.1216,-26.71888 L 462.42745,100.4334 411.63438,49.640331 341.10725,88.158816 C 332.54,83.803061 323.64791,80.087562 314.38832,77.037318 L 291.87389,0 Z m 26.0408,34.721045 h 19.80183 l 20.20874,69.306675 9.49403,2.50895 c 13.51276,3.61446 26.11289,8.92157 37.97615,15.80085 l 8.47681,4.95052 63.40659,-34.72104 13.96981,14.03737 -34.72105,63.33883 4.95045,8.47679 c 6.90769,11.84196 12.23636,24.49709 15.80079,37.97614 l 2.50915,9.42642 69.30647,20.2764 v 19.80176 l -69.30647,20.27674 -2.50915,9.49412 c -3.56443,13.47941 -8.89304,26.13384 -15.80079,37.97614 l -4.95045,8.4768 34.72105,63.33882 -13.96981,13.96967 -63.4066,-34.65334 -8.4768,4.88282 c -11.86346,6.87928 -24.46389,12.25445 -37.97615,15.86856 l -9.49403,2.50929 -20.20874,69.23863 h -19.80184 l -20.20873,-69.23863 -9.49404,-2.50929 c -13.52152,-3.61689 -26.19075,-8.9431 -37.97614,-15.80085 l -8.47682,-4.95053 -63.4066,34.65334 -13.969788,-13.96967 34.721038,-63.33882 -4.95046,-8.4768 c -6.90767,-11.84334 -12.23634,-24.49708 -15.80079,-37.97614 l -2.50913,-9.49412 -69.30646,-20.27674 v -19.80176 l 69.30646,-20.2764 2.50913,-9.42642 c 3.56443,-13.4794 8.89305,-26.13383 15.80079,-37.97614 l 4.95046,-8.47679 -34.721038,-63.33883 13.969788,-14.03737 63.4066,34.72104 8.47682,-4.95052 c 11.78606,-6.8581 24.45543,-12.18431 37.97614,-15.80085 l 9.49404,-2.50895 z M 256,166.14576 c -49.43136,0 -89.85427,40.42293 -89.85427,89.85424 0,49.43131 40.42292,89.85424 89.85427,89.85424 49.43135,0 89.85428,-40.42293 89.85428,-89.85424 0,-49.43131 -40.42293,-89.85424 -89.85428,-89.85424 z m 0,34.72104 c 30.66662,0 55.13321,24.46653 55.13321,55.1332 0,30.66667 -24.46659,55.1332 -55.13321,55.1332 -30.66662,0 -55.13321,-24.46653 -55.13322,-55.1332 0,-30.66667 24.4666,-55.1332 55.13322,-55.1332 z"/></svg>