<svg xmlns="http://www.w3.org/2000/svg" xmlns:svg="http://www.w3.org/2000/svg" id="SVGDoc" width="512" height="512" version="1.1" viewBox="0 0 512 512"><metadata id="metadata54"/><defs id="defs5"><clipPath id="clip-d02fb475-51d6-4ab7-b8ca-a5abd30fd9f5"><path id="path2" d="m 0,14.2667 v 0 -14.05531 0 h 14.35742 v 0 14.05531 0 z"/></clipPath></defs><desc id="desc7">Generated with Avocode.</desc><path style="color:#000;font-style:normal;font-variant:normal;font-weight:400;font-stretch:normal;font-size:medium;line-height:normal;font-family:sans-serif;font-variant-ligatures:normal;font-variant-position:normal;font-variant-caps:normal;font-variant-numeric:normal;font-variant-alternates:normal;font-feature-settings:normal;text-indent:0;text-align:start;text-decoration:none;text-decoration-line:none;text-decoration-style:solid;text-decoration-color:#000;letter-spacing:normal;word-spacing:normal;text-transform:none;writing-mode:lr-tb;direction:ltr;text-orientation:mixed;dominant-baseline:auto;baseline-shift:baseline;text-anchor:start;white-space:normal;shape-padding:0;clip-rule:nonzero;display:inline;overflow:visible;visibility:visible;opacity:1;isolation:auto;mix-blend-mode:normal;color-interpolation:sRGB;color-interpolation-filters:linearRGB;solid-color:#000;solid-opacity:1;vector-effect:none;fill:#000;fill-opacity:1;fill-rule:nonzero;stroke:none;stroke-width:36.18274689;stroke-linecap:butt;stroke-linejoin:miter;stroke-miterlimit:20;stroke-dasharray:none;stroke-dashoffset:0;stroke-opacity:1;color-rendering:auto;image-rendering:auto;shape-rendering:auto;text-rendering:auto;enable-background:accumulate" id="path13" d="M 63.319805,5.5122675 C 28.583527,5.5122675 -2.19e-6,34.024997 -2.19e-6,68.761158 V 443.23848 c 0,34.73652 28.58352919,63.24925 63.31980719,63.24925 H 448.68019 C 483.41649,506.48773 512,477.975 512,443.23848 V 68.761158 C 512,34.024997 483.41649,5.5122675 448.68019,5.5122675 Z m 0,36.1827475 H 448.68019 c 15.18145,0 27.13706,11.884947 27.13706,27.066143 V 443.23848 c 0,15.18156 -11.95561,27.0665 -27.13706,27.0665 H 63.319805 c -15.181438,0 -27.137061,-11.88494 -27.137061,-27.0665 V 68.761158 c 0,-15.181196 11.955623,-27.066143 27.137061,-27.066143 z m 34.204003,87.559355 v 36.18274 H 414.4762 v -36.18274 z m 0,103.31875 v 36.18274 H 414.4762 v -36.18274 z m 0,103.31875 v 36.18274 H 256.106 v -36.18274 z"/></svg>