<svg xmlns="http://www.w3.org/2000/svg" xmlns:avocode="https://avocode.com/" xmlns:xlink="http://www.w3.org/1999/xlink" id="SVGDoc" width="26" height="25" version="1.1" viewBox="0 0 26 25"><desc>Generated with Avocode.</desc><g><g><title>Icon ionic-ios-warning</title><path fill="#ff4412" fill-opacity="1" d="M12.74367,19.72659c-0.65556,0 -1.17021,-0.49627 -1.17021,-1.12733c0,-0.63106 0.51465,-1.12733 1.17021,-1.12733c0.65556,0 1.17021,0.49627 1.17021,1.12733c0,0.63106 -0.51465,1.12733 -1.17021,1.12733zM13.82198,8.18376l-0.22056,7.47466h-1.7155l-0.22056,-7.47466zM11.08332,1.71048l-10.85051,19.80171c-0.6862,1.23761 0.22669,2.75092 1.66035,2.75092h21.70714c1.42754,0 2.34042,-1.51331 1.66035,-2.75092l-10.85663,-19.80171c-0.71683,-1.29887 -2.60388,-1.29887 -3.32071,0z"/></g></g></svg>