<?xml version="1.0" encoding="UTF-8"?>
<svg preserveAspectRatio="none" id="SVGDoc" width="358" height="26" xmlns="http://www.w3.org/2000/svg" version="1.1" xmlns:xlink="http://www.w3.org/1999/xlink" xmlns:avocode="https://avocode.com/" viewBox="0 0 358 26"><defs></defs><desc>Generated with Avocode.</desc><g><g clip-path="url(#clip-04af7257-b6e4-4ae6-97b6-b33d289d6e7b)"><title>Tracé 2229</title><path d="M92.79243,24.6719c9.9817,0.0365 19.96584,0.09414 29.94755,0.16235c42.06261,0.28628 84.12771,0.7551 126.20004,0.52838c6.37099,-0.03459 81.6955,-0.46209 81.71738,-0.52069c-0.11185,0.32663 -1.34125,0.5082 -2.57071,0.68689c0.77509,0.02498 1.96335,-0.04611 2.66061,0.19694c-1.35828,-0.5937 2.45654,-0.36025 1.37775,-0.6158c4.32986,-1.29115 9.7338,-0.01441 13.53406,-0.8819c0.4082,-1.19797 9.384,-20.54706 9.47867,-21.97559c1.1615,0.03843 2.3157,0.07589 2.66321,0.19694c-0.27942,-0.33912 -2.55139,-0.52261 -3.77847,-0.34296l-0.25992,0.76278c-2.81131,0.23921 -0.62448,-0.46113 -3.35318,-0.43807c-0.10446,-0.62733 2.41281,-0.73492 4.62634,-0.77239c-1.98267,-0.09319 -3.93378,-0.57064 -4.78915,0.10664c-1.85391,-0.27956 0.2576,-0.76278 -1.97546,-1.05387c-1.61578,0.16716 -3.76376,0.75798 -5.58124,0.3689l0.03885,-0.11048c-4.43445,-0.69265 -6.91525,0.87806 -10.96582,0.19694l0.45438,-0.20463c-1.42139,-0.37755 -4.30078,0.07974 -6.88605,-0.33432c0.73624,0.1345 1.35342,0.59466 -0.22116,0.6523c-2.97406,-0.42558 -5.04672,-0.05188 -7.20682,-0.56296l-2.14563,0.59178c-10.43845,-0.22864 -51.76001,0.21423 -62.2617,0.20366l0.41798,-0.09415c-16.00774,0.14122 -48.8273,-0.24786 -65.40843,0.42558c-2.51482,-0.63021 -6.05022,-0.52453 -8.70361,-0.72147c1.46518,0.26707 0.92821,0.68977 -0.22839,0.65326c-8.11801,-0.15371 -0.57587,0.41213 -8.80812,0.58409c-9.49815,0.46401 -45.6636,-0.55143 -54.02706,-1.15282c-4.57047,0.84252 -10.15665,0.11144 -14.61534,0.62829l0.45921,-0.20559c-4.76728,0.28532 -31.58279,-0.8185 -37.12035,-0.5572l0.73381,0.1345c-4.84751,0.5034 -4.12827,-0.46401 -7.89938,-0.80601c0.43252,1.00295 -3.72733,1.52652 -5.3043,1.58609l0.0729,-0.21807c-2.38123,0.1441 -7.80944,0.95492 -11.73361,1.0481l0.18952,-0.54471c-3.30456,0.55335 -9.42527,0.24593 -11.77734,0.2786c-5.35047,-0.28148 -13.56326,-1.31805 -20.78955,-0.67152l-4.53162,-1.60434v0l-0.69007,0.14698v0c0,0 -8.71334,18.72176 0.49811,22.82387l-0.1871,0.54278v0l1.87825,-0.05091c2.23058,0.29205 3.31185,-0.32856 3.12232,0.21327l-3.07615,-0.09799c2.25001,0.18157 0.65362,0.45344 -0.2284,0.75318c0.93791,0.06244 1.84909,0.13737 2.59019,0.31222c0.45924,-0.20462 -0.31344,-0.22865 -0.64633,-0.35257c4.27648,-0.63021 3.61557,0.13642 6.52893,0.31895c4.62881,0.28916 9.80433,0.02017 14.57893,-0.03266c10.28543,-0.11432 20.57329,-0.17772 30.86116,-0.20463c11.04597,-0.02978 22.09438,-0.01633 33.14034,0.02402" fill="#3b4256" fill-opacity="1"></path></g></g></svg>