<?xml version="1.0" encoding="UTF-8"?>
<svg id="SVGDoc" width="120" height="48" xmlns="http://www.w3.org/2000/svg" version="1.1" xmlns:xlink="http://www.w3.org/1999/xlink" xmlns:avocode="https://avocode.com/" viewBox="0 0 120 48"><defs></defs><desc>Generated with Avocode.</desc><g><g><title>logo</title><g><title>Tracé 729</title><path d="M117.54603,14.1727v0l-12.7,6.49325v0l-3.43761,-5.82482c-0.57293,-1.05038 -2.19624,-0.57293 -2.19624,0.57293v14.89627c0,0.95489 1.14587,1.52782 1.90978,0.8594l18.04738,-14.7053c1.24136,-1.05038 -0.09546,-3.05565 -1.62331,-2.29174" fill="#ff4412" fill-opacity="1"></path></g><g><title>Tracé 730</title><path d="M93.96029,9.97119v0l-2.57819,4.297v0l-9.4534,-4.86994c-1.14587,-0.57294 -2.10075,0.95489 -1.14587,1.7188l13.36845,10.88574c0.57294,0.47744 1.43233,0.09549 1.43233,-0.66842v-10.88573c0,-0.95489 -1.14587,-1.24136 -1.62332,-0.47745" fill="#9f69c7" fill-opacity="1"></path></g><g><title>Tracé 731</title><path d="M90.4272,1.2817v0l9.16693,7.44813c0.38196,0.28647 0.95488,0 0.95488,-0.47744v-7.44814c0,-0.57293 -0.7639,-0.8594 -1.14584,-0.28647l-1.81429,2.96016v0l-6.49327,-3.34211c-0.66841,-0.38196 -1.33682,0.66842 -0.66841,1.14587" fill="#1be1eb" fill-opacity="1"></path></g><g><title>Tracé 732</title><path d="M93.19639,44.25171v0h-12.12711v0l13.17747,-16.13763c0.66842,-0.76391 0.09548,-1.90978 -0.95489,-1.90978h-15.27822c-1.24136,0 -1.62331,1.62332 -0.57294,2.19625l6.01582,3.53309v0l-6.58875,12.891c-0.19098,0.19098 -0.28647,0.47745 -0.28647,0.85941c0,0.7639 0.66842,1.43233 1.43233,1.43233h15.27822c0.7639,0 1.43233,-0.66842 1.43233,-1.43233c-0.09549,-0.8594 -0.66843,-1.43233 -1.52782,-1.43233" fill="#ffffff" fill-opacity="1"></path></g><g><title>Tracé 733</title><path d="M71.6159,17.13285c-0.76391,0 -1.43232,0.66842 -1.43232,1.43233v10.40829c-2.00528,-2.19625 -4.77445,-3.53309 -7.92559,-3.53309c-5.92031,0 -10.79025,4.86993 -10.79025,10.79024c0,5.92032 4.86994,10.79025 10.79025,10.79025c5.92031,0 10.79025,-4.86993 10.79025,-10.79025v-17.66544c0,-0.76391 -0.66842,-1.43233 -1.43233,-1.43233M62.16249,44.2517c-4.39248,0 -7.92557,-3.53309 -7.92557,-7.92558c0,-4.39249 3.53309,-7.92559 7.92557,-7.92559c4.3925,0 7.92559,3.53309 7.92559,7.92559c0,4.39248 -3.53309,7.92558 -7.92559,7.92558" fill="#ffffff" fill-opacity="1"></path></g><g><title>Tracé 734</title><path d="M10.78947,25.44038c-3.15114,0 -6.0158,1.33684 -7.92558,3.53309v-10.40829c0,-0.76391 -0.66842,-1.43233 -1.43233,-1.43233c-0.76391,0 -1.43233,0.66842 -1.43233,1.43233v17.76094c0,5.92031 4.86993,10.79025 10.79025,10.79025c5.92031,0 10.79025,-4.86993 10.79025,-10.79025c0,-6.01581 -4.86993,-10.88574 -10.79025,-10.88574M10.78947,44.2517c-4.39249,0 -7.92558,-3.53309 -7.92558,-7.92558c0,-4.39249 3.53309,-7.92559 7.92558,-7.92559c4.39249,0 7.92558,3.53309 7.92558,7.92559c0,4.297 -3.53309,7.92558 -7.92558,7.92558" fill="#ffffff" fill-opacity="1"></path></g><g><title>Tracé 735</title><path d="M27.97747,25.44039c-0.76391,0 -1.43233,0.66842 -1.43233,1.43234v18.81131c0,0.76391 0.66842,1.43233 1.43233,1.43233c0.76391,0 1.43233,-0.66842 1.43233,-1.43233v-18.81131c0,-0.76392 -0.66842,-1.43234 -1.43233,-1.43234" fill="#ffffff" fill-opacity="1"></path></g><g><title>Tracé 736</title><path d="M50.03541,26.49077c-1.14587,-0.38195 -2.5782,-0.7639 -4.67896,-0.7639c-2.76917,0 -5.15639,1.14587 -7.06617,3.34211v-2.19624c0,-0.76391 -0.66842,-1.43234 -1.43233,-1.43234c-0.76391,0 -1.43233,0.66843 -1.43233,1.43234v18.81131c0,0.76391 0.66842,1.43233 1.43233,1.43233c0.76391,0 1.43233,-0.66842 1.43233,-1.43233v-11.07672c0.38196,-1.05037 2.29174,-6.0158 7.06617,-6.0158c1.71881,0 2.86467,0.28646 3.81956,0.57293c0.76391,0.28647 1.52782,-0.19098 1.81429,-0.95489c0.19099,-0.66842 -0.19098,-1.43233 -0.95489,-1.7188" fill="#ffffff" fill-opacity="1"></path></g><g><title>Tracé 737</title><path d="M27.97747,20.28399c-0.76391,0 -1.43233,0.66842 -1.43233,1.43234c0,0.76391 0.66842,1.43233 1.43233,1.43233c0.76391,0 1.43233,-0.66842 1.43233,-1.43233c0,-0.76391 -0.66842,-1.43234 -1.43233,-1.43234" fill="#ffffff" fill-opacity="1"></path></g></g></g></svg>