<?xml version="1.0" encoding="UTF-8"?>
<svg id="SVGDoc" width="26" height="22" xmlns="http://www.w3.org/2000/svg" version="1.1" xmlns:xlink="http://www.w3.org/1999/xlink" xmlns:avocode="https://avocode.com/" viewBox="0 0 26 22"><defs><clipPath id="clip-54982bad-bd13-43af-9af4-d3243334014a"><path d="M-0.99996,22.68049v0v-23.63974v0h28.57638v0v23.63974v0z" ></path></clipPath></defs><desc>Generated with Avocode.</desc><g><g transform="rotate(-180 13.5 11)"><title>Groupe 908</title><g><title>Groupe 894</title><g><title>Rectangle 787</title><path d="M-0.99996,22.68049v0v-23.63974v0h28.57638v0v23.63974v0z" fill-opacity="0" fill="#ffffff" stroke-dashoffset="0" stroke-linejoin="miter" stroke-linecap="butt" stroke-opacity="1" stroke="#ffffff" stroke-miterlimit="20" stroke-width="1"></path></g><g clip-path="url(#clip-54982bad-bd13-43af-9af4-d3243334014a)"><title>Tracé 2844</title><path d="M11.05711,1.0242v0h-8.6144c-0.58567,0 -1.05814,0.47575 -1.05814,1.05814v8.44871c0,0.58403 0.47247,1.05978 1.05814,1.05978h2.80858c-0.32975,1.51749 -1.51421,2.81514 -2.9267,3.05138c-0.5102,0.08695 -0.88424,0.52989 -0.88424,1.04666v3.94875c0,0.31006 0.13452,0.60043 0.36748,0.80222c0.19522,0.1657 0.43802,0.25592 0.69066,0.25592c0.05414,0 0.10499,-0.00328 0.15913,-0.01148c5.65817,-0.85636 9.45763,-4.93799 9.45763,-10.15322v-8.44871c0,-0.58239 -0.47247,-1.05814 -1.05814,-1.05814" fill-opacity="0" fill="#ffffff" stroke-dashoffset="0" stroke-linejoin="miter" stroke-linecap="butt" stroke-opacity="1" stroke="#ffffff" stroke-miterlimit="20" stroke-width="1"></path></g><g clip-path="url(#clip-54982bad-bd13-43af-9af4-d3243334014a)"><title>Tracé 2845</title><path d="M24.13211,1.0242v0h-8.61441c-0.58567,0 -1.05814,0.47575 -1.05814,1.05814v8.44871c0,0.58403 0.47247,1.05978 1.05814,1.05978h2.80858c-0.32974,1.51749 -1.5142,2.81514 -2.9267,3.05138c-0.5102,0.08695 -0.88424,0.52989 -0.88424,1.04666v3.94875c0,0.31006 0.13452,0.60043 0.36748,0.80222c0.19522,0.1657 0.43802,0.25592 0.69066,0.25592c0.05414,0 0.10499,-0.00328 0.15913,-0.01148c5.65818,-0.85636 9.45763,-4.93799 9.45763,-10.15322v-8.44871c0,-0.58239 -0.47247,-1.05814 -1.05814,-1.05814" fill-opacity="0" fill="#ffffff" stroke-dashoffset="0" stroke-linejoin="miter" stroke-linecap="butt" stroke-opacity="1" stroke="#ffffff" stroke-miterlimit="20" stroke-width="1"></path></g></g></g></g></svg>