<?xml version="1.0" encoding="UTF-8" standalone="no"?>
<svg
   xmlns:dc="http://purl.org/dc/elements/1.1/"
   xmlns:cc="http://creativecommons.org/ns#"
   xmlns:rdf="http://www.w3.org/1999/02/22-rdf-syntax-ns#"
   xmlns:svg="http://www.w3.org/2000/svg"
   xmlns="http://www.w3.org/2000/svg"
   xmlns:sodipodi="http://sodipodi.sourceforge.net/DTD/sodipodi-0.dtd"
   xmlns:inkscape="http://www.inkscape.org/namespaces/inkscape"
   id="SVGDoc"
   width="1646"
   height="518"
   version="1.1"
   viewBox="0 0 1646 518"
   preserveAspectRatio="none"
   sodipodi:docname="sketch-red.svg"
   inkscape:version="0.92.5 (2060ec1f9f, 2020-04-08)">
  <metadata
     id="metadata317">
    <rdf:RDF>
      <cc:Work
         rdf:about="">
        <dc:format>image/svg+xml</dc:format>
        <dc:type
           rdf:resource="http://purl.org/dc/dcmitype/StillImage" />
        <dc:title></dc:title>
      </cc:Work>
    </rdf:RDF>
  </metadata>
  <sodipodi:namedview
     pagecolor="#ffffff"
     bordercolor="#666666"
     borderopacity="1"
     objecttolerance="10"
     gridtolerance="10"
     guidetolerance="10"
     inkscape:pageopacity="0"
     inkscape:pageshadow="2"
     inkscape:window-width="1080"
     inkscape:window-height="1883"
     id="namedview315"
     showgrid="false"
     inkscape:zoom="0.27339004"
     inkscape:cx="823"
     inkscape:cy="259"
     inkscape:window-x="0"
     inkscape:window-y="0"
     inkscape:window-maximized="1"
     inkscape:current-layer="SVGDoc" />
  <defs
     id="defs2" />
  <desc
     id="desc4">Generated with Avocode.</desc>
  <path
     style="fill:#9f69c7;fill-opacity:1"
     d="M 1058.3027 0.72070312 C 1057.6054 0.70003281 1056.5595 0.74732375 1055.1055 0.90234375 L 1056.7637 1.7382812 C 1059.3496 1.4636762 1060.3948 0.78271406 1058.3027 0.72070312 z M 1065.8594 2.1953125 C 1057.6333 2.1202487 1049.9386 2.7554781 1044.543 2.8632812 C 1045.1943 2.764285 1045.9456 2.6573028 1046.6133 2.5585938 L 1043.2305 2.8535156 C 1043.5961 2.856416 1044.0671 2.8633403 1044.4863 2.8691406 C 1034.7705 4.4173783 1023.5923 7.4176452 1015.5586 10.214844 C 1015.9831 9.8900338 1015.4174 9.9408656 1017.0059 9.5097656 C 1011.1734 11.024536 1009.8717 12.235379 1008.2266 13.230469 C 1007.4264 13.761969 1006.5816 14.30437 1005.1426 14.96875 C 1003.736 15.68037 1001.7874 16.572032 998.69922 17.726562 C 991.91687 19.560233 1004.6988 14.542253 1000.6367 15.882812 C 997.56071 14.896582 986.37677 22.436757 978.17969 25.779297 L 979.9082 24.693359 C 973.56237 27.285899 966.57105 33.013865 957.82422 38.609375 C 957.82422 38.609375 958.09026 38.207778 957.60938 38.361328 C 955.07098 40.664498 951.07806 43.705281 946.95117 47.050781 C 942.70306 50.310641 938.30005 53.852073 934.59766 56.908203 C 936.25885 54.557793 937.72302 53.954372 935.5 54.544922 C 932.13708 57.261472 937.71888 54.62472 931.02539 60.03125 C 928.40619 61.48402 923.25281 65.175018 921.77344 65.148438 L 928.04297 59.990234 C 923.75037 61.912494 919.8822 66.646657 916.41016 69.248047 L 916.3457 68.591797 C 907.17444 76.785747 908.10443 77.542385 898.36328 86.359375 L 899.73633 85.662109 C 895.68628 91.210369 894.53894 89.278692 890.35547 94.726562 L 887.53711 95.503906 C 886.00922 97.219456 883.33442 100.23163 880.35547 103.58008 C 877.45337 106.96395 874.22363 110.6658 871.40234 113.68945 C 873.81543 109.85379 880.08856 102.58102 884.02539 98.089844 C 880.56146 101.26703 872.92689 109.23608 871.84766 111.26758 C 873.03601 109.88274 874.37744 108.05038 875.87305 106.85156 C 872.86975 111.40769 868.10455 116.93834 861.85156 123.57617 C 861.17254 122.36257 856.79455 126.54607 852.03711 131.64258 C 847.27564 136.73316 841.84692 142.60667 838.66992 144.57617 C 828.96924 156.95419 817.12261 168.03633 804.85938 182 C 811.27801 178.03441 801.28962 186.07903 804.12305 186.21484 C 801.37722 189.49244 800.2398 190.7134 799.8418 190.94727 L 800.53516 190.30859 C 800.23606 190.58025 800.06527 190.73455 799.81055 190.96484 C 798.9144 191.36724 803.83504 184.1017 798.27148 189.44336 C 803.15793 185.33926 792.80009 197.30477 799.81445 190.96484 C 799.81445 190.96484 799.81641 190.96484 799.81641 190.96484 L 799.82031 190.9668 L 789.82812 200.16797 C 787.14819 202.20242 792.12402 196.87245 791.39648 196.94922 C 784.90106 203.9532 787.85852 199.50058 783.11328 203.92383 C 784.71387 203.31555 781.97071 206.89138 778.07422 210.78906 L 784.11523 205.56445 C 776.35864 215.98185 774.72254 213.28324 766.87305 223.77148 L 769.05273 220.30859 C 764.84918 225.60884 752.09998 239.15678 749.24219 244.95898 C 748.19141 245.74737 746.55036 246.66753 748.42578 244.34961 C 737.18915 256.43529 725.64972 272.33331 716.01367 281.28906 L 716.35352 280.12305 C 714.42945 282.45868 713.68817 284.52759 710.58789 287.11719 C 710.51509 286.86914 710.92383 285.95965 709.93359 286.99609 C 709.01202 288.27758 705.31347 293.44644 702.25781 296.29883 L 704.04883 293.46094 C 692.52112 304.96201 688.72186 312.276 679.8457 322.31836 C 678.41076 321.56543 669.27527 330.5773 664.68359 335.05664 L 664.63086 334.79102 C 651.55505 348.33835 643.8523 358.52793 632.19922 371.31641 C 623.06836 378.25544 605.63837 397.10932 591.97656 408.72266 C 594.18341 407.01587 592.75714 409.63687 590.62695 411.86914 C 587.36517 414.56213 583.25159 420.25541 582.44727 419.06836 L 583.55469 418.07617 C 580.02204 419.48758 574.09986 425.44977 569.0918 429.88477 L 569.92773 431.60547 C 562.18328 436.69891 553.81219 444.40634 545.85352 451.25977 C 537.95557 458.14862 530.55133 464.23758 525.64844 466.44922 C 522.56842 469.29862 518.25159 472.4718 515.0625 475.20898 L 514.46094 474.4707 C 504.31159 481.13214 499.27554 484.48953 486.18359 492.08398 L 488.40625 490.11914 C 480.8801 494.17331 480.83624 497.28249 473.43945 500.74609 L 470.32617 500.69141 C 456.19546 506.81546 440.50046 510.38666 425.18945 511.51758 C 425.44009 511.31977 425.89274 511.0564 428.39062 510.83789 C 426.56772 511.00919 423.90867 510.81215 420.98633 510.73828 C 418.09635 510.44305 414.94674 510.16244 412.16992 509.61914 C 407.00233 508.75408 402.95791 507.64594 403.00977 508.41797 C 402.44106 507.81076 399.06396 506.81505 395.06055 505.25195 C 392.79703 504.38388 390.35617 503.30805 388.00781 502.25977 C 385.76449 501.08747 383.43677 500.10394 381.77148 499.05273 L 383.50977 499.10938 C 377.18409 496.23633 376.53149 496.39249 369.36914 490.78516 C 368.11404 489.5585 368.48143 489.25893 369.74805 490.35547 C 367.85215 488.55593 366.73212 487.77704 365.59961 486.92383 C 364.3385 485.93756 362.70072 484.94114 360.1543 481.72852 C 361.06775 482.38401 361.93714 483.05857 362.87891 483.6875 C 358.13367 478.49063 358.12057 479.10648 354.93555 476.47852 C 351.58881 473.33088 346.91241 466.0531 347.25195 464.88086 C 346.19696 464.33756 343.20325 461.58063 341.22266 458.14062 C 341.27526 457.56189 342.2815 458.70948 342.79883 459.2793 C 337.1886 449.5824 332.52682 445.45151 329.75 438.41211 C 330.01678 438.16995 329.94064 437.68033 329.73047 437.0957 C 333.64744 444.23174 337.20987 449.95406 337.41602 450.44531 C 338.27231 450.02576 334.79561 443.97377 339.05078 448.40234 C 335.21493 443.74871 328.94159 435.63635 325.85352 429.30859 C 325.77672 428.9808 325.7044 428.66125 325.72461 428.39258 L 326.19336 428.99805 C 325.48596 427.54523 324.67459 426.30002 323.83789 425.14844 C 322.88397 423.13462 322.29324 421.84778 321.23828 419.95508 C 321.68692 418.95996 317.37006 412.61636 315.53906 409.47461 C 314.66507 410.06058 312.4258 406.06267 313.76562 409.91406 C 313.77793 409.81984 314.44928 410.84592 315.54297 412.58984 C 315.36126 412.33398 315.22002 412.17745 314.99414 411.81445 C 315.16794 412.26619 315.33411 412.69285 315.50391 413.12695 C 315.7692 413.34133 316.03401 413.56176 316.27148 413.75586 C 316.05323 413.40662 315.83443 413.04788 315.62891 412.71875 C 315.93096 413.16113 316.25431 413.66868 316.49219 413.94336 L 316.27539 413.75977 C 317.53221 415.80255 319.21518 418.45355 320.92383 421.52539 C 319.02008 419.18674 317.00958 416.75881 315.50195 413.12695 C 313.86493 411.73614 312.11887 410.20129 311.19727 409.3125 C 310.17466 404.55261 305.68512 396.14594 305.81445 394.71094 C 304.18554 392.38706 302.41418 389.85709 300.60742 387.2793 C 298.71173 384.73404 296.78103 382.1386 294.92578 379.64648 C 291.23141 374.66812 287.4155 370.28016 284.29102 367.79688 C 282.10431 365.29586 282.58899 364.59253 282.14844 363.5 C 283.4661 364.92624 284.77527 366.72397 285.65234 367.42969 C 281.44467 362.35388 273.48618 352.24526 271.22266 351.60156 C 266.49759 344.95193 275.49124 354.62103 267.7832 346.01367 L 269.20117 347.00391 C 262.74212 337.99494 255.5038 331.53574 247.6543 325.2168 C 243.69722 322.06324 239.76747 318.83691 235.34961 315.46484 C 231.16213 311.94513 226.39854 308.37421 221.45117 303.98633 C 222.83755 305.19107 223.53248 305.78918 223.66992 306.14648 C 211.53187 296.89242 196.61172 288.75037 179.78906 283.58594 C 162.97447 278.48059 144.72622 276.07123 127.11133 276.57617 C 117.07109 276.89505 116.19434 278.06147 110.40625 279.31641 C 109.61401 279.1156 108.81722 278.93075 108.03711 278.79492 L 98.4375 281.7832 C 95.07458 282.84323 91.860112 283.61975 88.638672 284.28711 C 85.453602 285.04004 82.322006 285.77719 79.072266 286.54492 C 72.633416 288.18667 65.766097 290.22464 58.248047 294.2168 L 60.730469 293.88867 C 57.767699 294.97235 53.348902 297.01806 49.763672 298.70703 C 46.129942 300.34286 43.336551 301.62205 43.550781 301.12891 C 43.069781 301.49802 42.229918 302.53677 39.861328 303.33398 L 39.335938 303.03125 C 35.019128 305.42593 30.866941 307.97125 26.744141 310.52539 C 16.404791 315.7341 26.740656 308.11012 12.128906 316.25977 C 6.9188162 319.51078 -1.6941844 326.31226 0.54101562 325.34375 C 2.6792156 324.08588 6.2036512 322.30844 6.7695312 322.57422 L 2.1933594 325.64648 C 2.1571334 325.46698 2.1251113 325.28469 1.9921875 325.16992 L 1.28125 326.25781 L 2.1894531 325.65039 C 2.5227769 327.23378 0.14990399 330.48618 12.630859 324.21094 C 15.072209 322.34183 17.610355 320.55893 20.140625 318.76367 L 23.373047 317.76758 L 16.433594 321.77539 C 20.924214 320.01553 22.953242 318.1506 25.451172 316.24609 C 26.401032 316.13681 27.791441 315.7005 29.582031 314.91211 L 36.845703 309.40625 C 38.292733 309.32945 33.9274 312.22285 39.8125 309.58008 C 43.32497 307.10272 35.034384 310.48916 41.339844 306.88086 C 46.000234 305.35428 45.106953 306.3205 49.658203 303.55078 C 50.628273 303.54178 49.711468 304.17322 47.892578 305.24805 C 52.003258 302.87107 59.412369 299.67294 61.324219 298.16406 C 63.878739 297.59417 67.633401 295.90286 70.931641 294.70703 C 74.237961 293.5318 76.946009 292.64612 77.099609 293.31641 C 78.312199 292.41581 84.819548 289.62717 89.205078 288.22461 C 85.615808 290.23544 89.657163 288.80966 94.632812 287.67578 C 97.110542 287.08816 99.742086 286.35366 101.72266 286.08789 C 103.70322 285.8251 104.94871 285.80752 104.55664 286.31836 C 110.07393 283.40692 126.66672 281.94766 137.81445 281.52539 C 137.18388 281.64056 135.95498 281.87747 134.96875 281.8125 C 141.27422 281.78 143.03176 282.555 146.97266 283.01562 C 147.45366 282.45162 150.14952 282.22584 153.375 282.44141 C 156.61667 282.56543 160.44141 282.80423 163.11719 283.11133 C 170.15425 285.77179 158.09676 283.45667 160.10156 284.99805 C 160.06926 284.50492 163.32986 284.95867 166.36133 285.375 C 169.42513 285.70572 172.05388 286.4592 171.03125 285.68555 C 176.20497 287.94147 175.62645 287.38907 177.91016 289.08398 C 179.67247 288.10955 182.93114 290.69164 187.89062 291.53906 C 194.73368 295.48398 188.81499 293.54254 197.11719 296.84375 C 198.74611 298.01303 197.77662 297.77057 196.40234 297.25977 C 194.97496 296.8221 193.14622 296.13808 193.12695 296.13086 C 197.16725 297.92472 198.16507 298.33758 198.61328 298.10156 C 199.03769 297.89782 198.76286 297.2114 199.83398 297.40625 C 209.35282 302.23407 203.46454 300.37561 206.0918 302.54297 C 211.72228 305.77036 216.94028 307.61088 220.63867 310.54297 C 220.75184 310.87958 221.43105 311.4676 220.34375 310.99219 C 221.90799 311.82782 223.70675 312.98187 225.63477 314.29883 C 227.486 315.68073 229.39652 317.28052 231.37305 318.86914 C 235.42305 321.99316 239.14534 325.49027 242.55273 327.73438 C 242.86395 328.1773 242.97798 328.42661 242.99414 328.57422 C 242.67483 327.40201 243.13171 326.92728 243.74609 326.85938 C 246.57545 329.35447 249.5335 331.22125 249.69922 332.65039 C 248.13497 331.01752 247.6913 331.05277 246.70508 330.42969 L 249.75195 333.00977 C 251.02112 336.1131 245.72273 329.41677 244.78906 329.93945 C 250.50439 335.03592 257.61431 340.84287 260.95703 345.32812 C 260.63769 346.73957 251.65523 335.61219 255.75781 341.74219 C 253.947 339.48331 251.93123 337.33664 250.02344 335.125 C 253.01044 340.90063 246.37382 331.20649 248.85156 336.64844 C 252.86928 340.85025 255.11594 343.19358 257.36328 345.54102 C 259.5823 347.90616 262.07642 350.14145 265.44336 354.65625 C 267.71497 356.35413 265.87082 353.56771 268.14648 355.27148 C 273.8901 361.30105 275.14041 364.11197 275.96094 366.52148 C 276.83805 368.91027 277.42843 370.83765 281.76953 375.23438 C 284.39679 377.36332 286.54266 377.78003 290.50781 384.93164 L 287.5 383.10938 C 293.55487 392.07394 293.10672 387.45639 298.30469 397.2832 C 296.66367 395.78619 293.23959 390.32284 293.95898 391.75195 C 296.82074 398.28351 297.56143 395.82235 300.61719 400.55273 L 300.00195 401.95508 C 306.29934 411.56943 313.63135 422.06507 319.95703 432.97266 C 319.23758 432.47953 317.78293 430.72617 318.83789 433.39844 C 323.03342 440.17502 327.18802 447.73184 331.59375 455.04883 C 336.01163 462.38944 340.73632 469.59745 345.50586 476.11719 L 350.57031 480.45703 C 351.49191 481.5791 351.97746 482.69794 350.67188 481.61719 C 354.73807 486.58081 351.52887 481.56163 354.04297 483.66406 C 356.62174 486.33038 356.81558 487.52789 354.91992 485.95703 C 359.39032 489.89599 365.80911 495.4754 373.23828 500.49805 C 380.59869 505.57688 389.04746 509.89569 395.60352 512.74219 L 392.83789 511.93359 C 395.32773 513.12063 397.57946 513.66428 399.45898 514.13672 C 401.33041 514.63867 403.01615 514.78278 404.62891 514.96875 C 407.85035 515.36743 410.89669 515.633 416.18359 516.60742 L 414.07422 516.57617 C 420.3797 517.39996 426.99728 517.47967 433.47656 516.95117 C 439.93966 516.3222 446.20318 515.11337 452.07617 513.5957 C 463.81808 510.51007 473.86682 506.26074 482.25391 503.01562 C 483.26032 501.74899 488.43838 499.38323 493.12305 496.82617 C 497.85211 494.31924 502.12524 491.6836 502 490.67969 C 507.65063 487.67084 509.86078 486.73168 512.43555 485.32031 C 515.03864 483.9237 518.19141 482.18713 525.51953 477.36523 C 529.33105 474.71655 530.01477 472.55581 534.34375 469.03906 L 535.34961 469.58398 L 540.44727 464.26758 L 544.70703 462.49023 L 548.5625 459.05273 C 546.87708 460.32544 544.68622 461.55273 544.66602 461.17773 C 550.69257 455.83023 560.63697 448.98016 561.26758 449.14258 C 565.88349 444.84036 570.37702 440.47949 574.85547 436.11523 C 574.92817 436.62612 572.6687 438.81387 571.01953 440.63281 C 577.64831 433.307 573.46868 440.04211 579.45898 433.2832 C 578.31506 433.98892 579.38227 432.49131 579.33789 432.23438 C 583.37579 429.49127 591.1134 422.38834 596.46484 416.93164 L 596.06445 418.33594 C 606.43213 408.86048 616.94055 397.83575 627.90234 386.86328 C 623.63812 390.62509 623.34314 389.07736 626.44336 385.80273 L 628.79492 385.08594 C 630.21368 382.66172 625.03229 388.22705 628.49219 383.54102 C 632.67963 379.49866 632.43775 381.41754 630.45312 383.96289 L 635.01562 378.76562 C 635.62604 378.64161 634.63703 379.90218 634.74219 380.42188 C 636.11237 378.0242 644.33667 372.34344 646.05859 368.75586 L 646.65234 368.63867 C 657.41601 357.57165 661.84302 352.32122 670.41602 343.21484 C 669.65607 342.57116 673.21308 339.11303 675.01172 336.02148 C 681.61231 329.487 689.29962 322.41031 696.7207 314.26953 C 701.52661 308.34625 697.46453 312.21356 699.27539 309.37891 C 700.52832 309.38791 707.90021 301.24213 704.65039 305.74805 C 713.47406 295.9419 715.92858 293.22229 726.49023 280.53125 C 724.91796 281.70056 723.3902 283.13517 723.81055 282.21094 C 725.70618 279.89893 728.81037 277.28205 728.93164 277.80469 L 728.48242 278.43945 C 739.81604 263.94726 760.04657 247.59838 768.19922 235.64258 L 767.73047 236.30664 L 777.11523 224.35742 C 782.01409 219.13986 774.92066 227.84016 778.9707 224.18164 C 788.65533 211.08318 796.75067 204.67335 804.93164 193.99023 C 814.57172 187.29628 829.86274 165.81476 841.04688 155.9082 L 839.89062 156.23828 C 841.76612 153.19397 843.22149 153.06223 845.17773 151.0957 C 844.45025 151.1607 841.96155 153.83299 843.16602 151.96094 C 863.1778 128.19109 888.03937 104.70998 913.2168 83.101562 C 917.88117 79.192093 918.47071 77.630781 919.51367 75.894531 C 920.55243 74.158301 922.01629 72.218222 928.68945 67.789062 L 926.28906 71.199219 C 935.17322 62.966879 945.3092 55.216141 955.875 47.931641 C 966.5296 40.715061 977.56091 33.964326 988.48242 27.660156 C 987.30615 28.543036 987.52032 28.82184 985.3457 30 C 990.49511 27.88286 1003.259 21.22711 1003.0449 20.78125 C 1006.7957 19.23695 1004.2665 20.861156 1006.7402 20.134766 C 1012.0433 18.422156 1019.1397 14.409318 1022.4258 14.267578 C 1022.9674 14.226238 1021.061 14.945495 1020.1191 15.296875 C 1021.7764 14.662025 1025.7375 13.224711 1029.0156 12.462891 C 1032.2491 11.612491 1034.6096 10.911785 1032.7383 10.953125 C 1042.5653 9.0587948 1051.5677 7.1303405 1059.6836 7.3574219 C 1059.2797 7.4473389 1058.8293 7.5280563 1058.5703 7.6386719 C 1060.8095 7.5471319 1063.037 7.8508731 1065.248 7.9394531 C 1063.5151 7.6539053 1061.6485 7.4018474 1059.7188 7.3535156 C 1061.0103 7.056089 1062.7412 7.0498952 1064.6289 7.0234375 C 1066.5244 7.0116275 1068.5782 7.04208 1070.4902 7.28125 C 1072.4101 7.46432 1074.2129 7.6198231 1075.6641 7.6582031 C 1077.0989 7.7615531 1078.1731 7.7891875 1078.666 7.5234375 C 1078.1326 8.2084775 1082.4612 8.8241006 1087.457 10.087891 C 1090.0114 10.575101 1092.6889 11.320238 1095.1543 11.955078 C 1097.6564 12.516108 1099.8175 13.205984 1101.3535 13.589844 C 1099.1952 13.256184 1106.0757 15.774975 1103.4688 15.453125 C 1106.6497 16.740535 1109.6964 17.972771 1111.8223 18.832031 C 1113.9204 19.735581 1115.2215 20.122483 1114.9668 19.570312 C 1119.9505 23.004393 1125.3036 26.060503 1130.0488 28.939453 C 1134.701 31.868603 1138.6665 34.637946 1140.1055 37.478516 C 1155.4003 49.248276 1166.9222 62.140153 1176.8613 75.064453 C 1175.0261 75.173703 1165.8268 60.784257 1164.4199 62.148438 C 1174.9048 73.835527 1181.3521 80.628177 1189.0117 93.460938 C 1190.8023 96.847768 1187.1658 91.812392 1186.123 90.826172 C 1194.9911 103.34593 1200.8032 115.85621 1207.707 127.375 C 1207.5292 127.3868 1206.7285 126.15557 1205.9805 124.99219 C 1207.2175 127.30125 1208.4331 130.47049 1209.0879 129.99805 L 1207.7422 127.78711 C 1207.0145 123.75657 1214.7392 136.40783 1215.4707 136.70312 C 1211.3601 133.2897 1220.4664 148.61528 1214.6582 142.99023 C 1215.515 144.50206 1216.7767 146.34947 1217.1406 145.86523 C 1218.0379 148.20088 1218.0617 149.00437 1216.4004 146.82227 C 1220.689 155.1373 1220.115 151.9586 1223.4941 159.62695 C 1223.0979 159.68605 1222.273 158.17239 1221.4727 157.48438 C 1223.9423 161.18421 1226.3319 164.94168 1228.7207 171.5293 C 1228.3326 171.18679 1228.3369 172.01034 1227.5488 170.06445 C 1232.2739 181.22889 1237.2574 188.77303 1241.1621 201.31641 C 1238.1264 197.99158 1242.1679 205.64202 1240.9512 206.58398 L 1243.7969 213.17383 L 1243.543 210.35742 C 1245.6405 216.20683 1248.5098 221.19136 1249.791 226.32031 L 1247.6641 222.07812 L 1251.7402 233.01953 L 1250.1621 226.69336 C 1252.9511 232.49556 1251.7968 225.71168 1254.0684 233.60742 C 1253.3853 232.04245 1256.0399 239.49337 1256.1973 242.71484 C 1257.6406 245.53395 1259.0976 248.44539 1260.1699 252.85156 C 1260.0689 254.06517 1258.2465 252.2243 1258.1777 253.01562 C 1260.3482 255.67312 1262.9837 266.75247 1265.4453 270.17773 C 1264.7501 269.01431 1263.9578 269.08264 1263.9297 269.50781 L 1265.7012 271.75391 C 1266.247 274.54132 1266.2129 274.96655 1265.4609 274.62695 C 1267.8739 282.87997 1266.4999 271.70095 1268.7754 281.5957 C 1268.4564 280.84274 1268.4205 281.23685 1267.7656 279.66602 C 1270.4293 289.54007 1274.3209 298.50695 1276.6289 307.60742 C 1275.9741 310.51297 1273.8208 299.789 1273.5176 303.04297 C 1277.7334 316.0647 1284.4634 329.86267 1292.8828 341.42578 L 1291.4512 339.21289 C 1293.0355 339.64395 1294.2127 341.90917 1296.0234 344.6582 C 1296.9732 346.01352 1298.0115 347.51956 1299.1797 349.01367 C 1300.457 350.45169 1301.9684 351.83335 1303.5488 353.04102 C 1302.0572 351.82447 1300.8093 351.87793 1301.375 352.12305 C 1304.9644 355.8642 1309.7183 359.15625 1315.5508 362.2832 C 1321.4641 365.35116 1328.9122 367.92868 1338.1035 369.4375 L 1335.6992 369.36133 C 1339.1591 370.33576 1343.9696 371.12063 1348.8887 371.42773 C 1351.3503 371.58425 1353.8347 371.74084 1356.1953 371.66406 C 1358.5599 371.65506 1360.8127 371.67321 1362.7852 371.51953 C 1365.0889 370.9555 1369.5576 370.66397 1366.7363 370.30078 C 1378.9875 370.25648 1390.1288 367.22998 1400.1406 363.79297 C 1410.2131 360.30573 1419.3723 356.29505 1429.166 353.15625 C 1426.9834 354.10114 1424.1538 355.66879 1425.916 354.93945 C 1431.0695 352.6304 1436.1062 350.19851 1441.0293 347.66211 C 1439.3196 347.65611 1438.7528 348.28098 1435.1719 349.32031 C 1436.8006 348.08606 1440.8061 345.80234 1444.4883 343.98047 C 1438.1264 347.64188 1445.4057 344.892 1448.5625 343.71094 C 1447.9198 343.78474 1448.7248 343.0932 1448.3164 343.04297 C 1456.9946 340.10202 1448.5343 341.2829 1459.5566 336.44922 L 1459.3027 337.03125 C 1462.9648 334.75171 1466.1299 332.47009 1470.2324 330.17578 C 1472.5769 329.81558 1466.5656 332.79681 1466.8203 333.43164 C 1472.5436 330.13043 1476.7667 325.75567 1482.4941 323.28711 C 1480.3033 324.88458 1476.9088 326.97104 1474.6816 328.55078 C 1481.0356 325.95529 1481.4855 325.3859 1485.6934 322.99414 L 1485.2754 323.22656 C 1488.5091 321.37222 1491.8031 319.56366 1494.9922 317.66797 L 1492.4102 318.99414 C 1497.3939 313.06497 1505.9673 309.74121 1513.627 302.61914 C 1506.117 309.47546 1512.8791 304.1398 1513.0488 305.24414 C 1515.5872 303.87701 1519.2766 301.66317 1518.5371 302.53125 C 1522.0615 299.09427 1526.0762 298.03964 1530.9062 293.09961 C 1531.4439 293.11441 1535.3201 289.91648 1535.0938 291.10352 C 1540.2109 287.04935 1533.3481 291.67067 1533.4492 291.08594 C 1540.7166 284.42154 1553.7951 277.71105 1563.7988 267.82812 C 1572.9822 259.70797 1573.7823 257.62003 1582.1289 250.01367 C 1585.5847 247.85812 1580.7598 252.72461 1580.7598 252.72461 C 1586.0184 249.03659 1589.5352 245.97172 1593.666 241.9707 C 1593.0193 242.90083 1594.1753 242.24959 1595.877 241.30469 C 1599.3692 238.20133 1597.1814 238.58994 1602.3145 234.82812 C 1601.8498 235.73167 1601.3533 236.95267 1599.9629 238.63281 C 1603.8997 234.86212 1607.4491 230.93209 1611.4629 227.00195 C 1613.1281 226.32278 1609.6764 229.75949 1608.5 231.29492 C 1613.1242 226.93661 1620.4675 220.00447 1621.082 218.17969 L 1618.5391 220.11719 C 1619.3311 219.68363 1619.1156 220.62495 1618.2168 221.60742 C 1614.7891 225.65863 1612.0042 226.68727 1611.4707 226.71094 L 1614.3164 223.90234 C 1609.4378 225.60019 1602.3645 234.84752 1595.9824 240.10938 L 1597.3027 237.08594 L 1591.9395 243.20703 C 1590.2377 244.15781 1588.5938 244.49697 1591.5039 241.75977 C 1586.3828 245.16433 1587.9627 245.40775 1583.375 248.21289 C 1582.8376 248.4993 1582.9711 248.29871 1583.3184 247.93555 L 1579.2422 251.85547 C 1579.8526 250.96372 1577.615 251.89171 1580.5332 249.75391 C 1571.8309 255.87798 1568.4841 260.9418 1564.4785 262.76367 L 1565.084 262.16992 C 1554.1586 271.43277 1564.9096 263.65466 1557.4199 271.10156 L 1549.4062 274.06055 L 1549.1621 275.55273 C 1547.9332 276.44149 1545.5011 278.18912 1545.582 277.60742 C 1541.7381 281.41653 1546.7297 277.30373 1544.7168 279.67188 C 1538.1567 283.47503 1528.9982 291.87269 1526.2578 291.79297 C 1524.7905 293.81265 1532.4376 288.10446 1526.5645 292.98242 C 1523.2905 293.18027 1519.4791 298.41267 1513.2988 301.7168 C 1514.2327 299.95993 1519.8179 296.64401 1513.666 299.95703 C 1511.6247 303.24643 1502.6162 307.10797 1498.1094 310.40625 C 1498.8856 311.36884 1488.153 317.51151 1480.2227 322.79102 C 1480.4652 322.23591 1464.1315 331.71439 1455.7363 335.63867 L 1455.8301 335.36719 C 1455.1793 337.08866 1446.6982 341.35199 1440.6191 344.54102 C 1440.3685 343.87665 1441.3225 343.15188 1444.4023 341.21484 C 1442.4947 342.20404 1440.5639 343.15875 1438.6035 344.08594 C 1437.4679 345.01609 1435.8265 346.11355 1432.0391 347.95312 L 1432.9434 346.5918 C 1425.1219 350.23554 1417.5527 354.54834 1406.4414 357.86133 C 1406.2392 358.76785 1416.3764 356.70975 1405.1074 361.22461 C 1404.4404 361.00314 1403.6271 360.51138 1406.5332 359.30664 C 1405.5914 359.71411 1403.2163 360.84903 1401.0781 361.29492 C 1402.5129 360.59805 1403.9479 359.9122 1405.3262 359.15039 C 1400.2009 360.55887 1403.0423 360.52753 1398.9883 361.75586 C 1398.7579 361.19482 1395.7952 362.30166 1396.1348 361.69336 C 1397.125 361.32132 1399.7552 360.82181 1401.166 360.13086 C 1396.6268 361.52457 1390.8881 362.66837 1388.8711 362.74219 C 1388.6967 362.66056 1388.3967 362.62695 1388.0996 362.63867 C 1388.1476 362.73903 1388.4426 362.76185 1388.875 362.74414 C 1389.4108 362.93499 1389.2452 363.54079 1385.8555 364.37109 C 1377.0322 366.41143 1382.5575 364.39876 1377.2949 365.11328 C 1375.29 365.9844 1369.4577 366.32043 1369.498 367.17969 C 1366.8464 367.53992 1366.2756 367.15661 1365.2168 366.98828 C 1364.0647 367.16839 1362.1204 367.37643 1359.9336 367.56836 C 1357.743 367.63036 1355.3132 367.70269 1353.1992 367.76172 C 1348.9916 367.63181 1345.9618 367.64078 1348.5566 368.24023 L 1349.7637 368.36328 C 1349.5332 368.36328 1349.2673 368.36133 1348.9844 368.36133 C 1341.1633 368.29053 1333.1157 366.56201 1326.123 363.62695 C 1319.102 360.69189 1313.076 356.74644 1307.8496 352.58594 L 1308.168 352.41016 C 1301.644 347.59122 1296.2156 340.19342 1292.5859 336.06836 C 1291.4541 334.21112 1290.5901 331.49295 1291.5117 332.14844 C 1289.8505 329.84232 1289.1625 328.47442 1288.2168 326.87695 C 1287.3154 325.26477 1286.3426 323.35407 1285.2148 319.66016 C 1288.032 324.50269 1284.9678 317.82752 1287.9629 324.64844 C 1285.4003 318.14051 1285.3441 316.59866 1281.9043 309.72461 C 1283.6947 311.9628 1281.4668 304.56674 1280.2422 301.39844 L 1280.9824 306.19922 C 1279.7255 302.65 1278.849 299.51321 1277.9434 296.32422 L 1279.7891 297.82422 C 1277.1294 283.87531 1269.374 273.61121 1268.7031 262.75977 C 1266.6337 259.29911 1270.4283 270.29239 1268.3262 267.24219 C 1266.5075 260.92621 1266.2459 254.0584 1265.6113 252.08594 C 1263.5096 243.35459 1261.0671 244.39715 1258.5449 235.32031 C 1258.4519 236.55458 1257.6074 237.85652 1254.8711 231.23047 C 1252.8945 224.93517 1254.1844 223.16977 1255.9102 227.05859 C 1256.4658 228.55002 1256.5677 229.30282 1256.3887 229.27344 C 1255.9158 228.15139 1255.5145 227.23014 1255.4941 227.52539 C 1255.9459 228.74238 1256.2489 229.23328 1256.3867 229.27344 C 1257.2517 231.26952 1258.359 233.89124 1258.0156 231.31641 L 1257.2715 230.58789 C 1256.6975 227.38708 1253.6345 218.77531 1255.1016 220.65625 C 1252.9958 216.00563 1253.6271 218.7759 1254.6172 222.32812 C 1252.4752 214.16727 1250.2197 209.77681 1247.625 201.44531 C 1247.8548 202.80584 1247.7564 204.11698 1247.2754 202.8125 C 1243.3751 190.60866 1244.4113 197.67007 1241.1211 189.53516 C 1240.0419 184.75168 1243.4738 190.84544 1239.6582 182.75781 C 1238.1586 177.64065 1240.4612 181.43422 1241.6211 183.35352 C 1237.8096 176.04837 1236.6096 169.25235 1234.9727 164.95312 L 1236.9902 168.80078 C 1235.8018 166.49763 1234.9767 164.57394 1234.1562 162.61328 L 1234.1895 165.0625 C 1233.3729 162.72391 1232.553 160.7679 1232.9531 160.72656 C 1231.3445 158.4913 1232.2087 162.88489 1229.3711 158.37305 C 1228.49 155.20766 1224.8028 149.1794 1225.4941 147.8418 C 1229.0383 156.69089 1226.7773 148.32397 1229.2168 152.90039 C 1228.6607 151.70209 1228.1028 150.34561 1227.5156 148.78711 C 1227.4916 148.40915 1227.9159 149.04893 1228.2676 149.66016 C 1225.1107 140.21422 1225.055 145.74792 1220.5645 136.26953 C 1221.8175 137.30005 1220.8013 133.7423 1219.916 132.23047 C 1221.7186 136.06021 1219.6824 134.34067 1217.4512 130.98633 C 1214.9373 124.80911 1213.8213 124.51393 1212.2168 121.35742 L 1213.8184 125.02539 C 1212.5612 123.97716 1211.0534 120.959 1208.6562 116.83398 C 1208.9919 116.32905 1211.0047 120.53072 1210.4551 118.97461 C 1206.8577 114.66652 1206.0974 108.13802 1201.5664 101.97852 C 1200.2932 98.872196 1202.6383 101.30629 1201.4297 98.601562 C 1196.2439 91.739302 1197.6747 90.554288 1192.125 83.361328 C 1192.6261 85.815088 1193.135 86.088022 1188.8223 81.201172 C 1191.7041 85.169712 1194.6132 89.14221 1197.2891 93.1875 C 1195.2802 90.6865 1193.1591 88.227178 1191.041 85.773438 C 1193.4582 89.431928 1196.5379 93.362082 1197.7383 95.638672 C 1194.719 92.116012 1195.1756 92.436416 1195.5312 94.447266 C 1194.6662 91.689366 1192.8914 89.248966 1190.9473 86.759766 C 1189.0557 84.246946 1186.9784 81.695464 1185.4102 78.677734 L 1187.6621 78.066406 C 1182.5167 69.066356 1175.7062 63.186066 1166.834 52.378906 C 1167.7677 53.551156 1168.6279 54.749341 1169.4766 55.957031 C 1167.5122 54.870411 1163.5965 49.464208 1160.0273 46.298828 C 1160.9853 46.269298 1159.163 44.074337 1158.1523 42.435547 C 1158.2097 42.34702 1158.098 42.056606 1157.5527 41.216797 C 1157.5936 41.505363 1157.8644 41.964485 1158.1504 42.435547 C 1157.9421 42.805942 1150.4001 35.032687 1148.0742 34.964844 L 1143.7578 30.191406 C 1141.3851 28.283916 1139.3921 26.871286 1137.6055 25.722656 C 1135.7704 24.603556 1134.0746 23.79258 1132.4375 22.96875 C 1130.8045 22.14197 1129.1709 21.342138 1127.2266 20.423828 C 1125.2663 19.520278 1123.2858 18.244458 1120.5293 16.830078 C 1124.3085 18.105678 1119.829 14.949496 1127.3066 18.785156 C 1123.855 16.617826 1120.5123 14.854164 1120.1406 15.146484 C 1118.2979 13.640762 1109.0883 10.666799 1105.6152 8.9570312 C 1106.1789 9.0826379 1106.877 9.2715928 1107.7832 9.6347656 C 1107.1028 9.3386419 1106.391 9.0573052 1105.0488 8.6386719 C 1105.2142 8.7446933 1105.3838 8.839354 1105.6133 8.9570312 C 1103.6853 8.6204113 1102.9016 8.7590356 1098.209 7.3535156 C 1097.7563 7.0966256 1098.3828 7.09375 1098.3828 7.09375 C 1098.1967 7.34769 1090.8041 5.3169944 1094.6035 7.1152344 C 1088.585 4.5226944 1078.9611 2.5736206 1069.418 2.2753906 C 1068.2241 2.2318369 1067.0368 2.2060569 1065.8594 2.1953125 z M 1107.7832 9.6347656 C 1108.1826 9.8085895 1108.5513 9.9726133 1109.082 10.212891 C 1108.5976 9.9742844 1108.1765 9.7923826 1107.7832 9.6347656 z M 1212.2168 121.35742 L 1211.2793 119.25586 C 1211.6108 120.10035 1211.9257 120.77277 1212.2168 121.35742 z M 1229.2168 152.90039 C 1229.4952 153.50019 1229.7742 154.07277 1230.0547 154.58594 C 1229.719 153.86854 1229.4538 153.34496 1229.2168 152.90039 z M 1348.9844 368.36133 C 1348.7216 368.30813 1348.7265 368.28158 1348.5566 368.24023 L 1348.1562 368.19922 C 1348.4877 368.25232 1348.7864 368.29932 1348.9844 368.36133 z M 1618.5391 220.11719 C 1618.3337 220.2296 1618.0761 220.41167 1617.7266 220.73633 L 1618.5391 220.11719 z M 1599.9629 238.63281 C 1599.3202 239.23813 1598.6974 239.82045 1598.0586 240.42578 C 1598.0746 240.49078 1598.0929 240.54618 1598.0879 240.63477 C 1598.8639 239.89657 1599.4576 239.24992 1599.9629 238.63281 z M 1598.0586 240.42578 C 1598.0586 240.23975 1597.9619 240.13894 1597.582 240.35156 C 1597.55 240.70296 1597.292 241.08425 1596.6816 241.67188 C 1597.1546 241.24373 1597.6099 240.83032 1598.0586 240.42578 z M 1485.6934 322.99414 L 1490.9785 320.08594 C 1488.6543 321.31433 1486.9991 322.2412 1485.6934 322.99414 z M 1103.4688 15.453125 C 1103.1291 15.329105 1102.826 15.219723 1102.4863 15.095703 L 1103.4434 15.458984 L 1103.4688 15.453125 z M 1102.4863 15.095703 L 1098.1133 13.431641 C 1096.6459 12.894231 1095.0973 12.493029 1093.5977 12.011719 C 1094.8547 12.413299 1096.3019 12.877028 1097.8379 13.367188 C 1099.3374 13.925257 1100.918 14.511053 1102.4863 15.095703 z M 548.5625 459.05273 C 549.20924 458.56254 549.76245 458.08324 550.08984 457.68164 L 548.5625 459.05273 z M 316.27539 413.75977 C 316.27539 413.75977 316.27539 413.75781 316.27539 413.75781 L 316.27148 413.75586 C 316.27148 413.75586 316.27148 413.75781 316.27148 413.75781 C 316.2725 413.75865 316.27437 413.75893 316.27539 413.75977 z M 337.41602 450.44531 C 337.40848 450.449 337.40665 450.46008 337.39844 450.46289 C 337.43744 450.50759 337.43472 450.48989 337.41602 450.44531 z M 369.74805 490.35547 C 370.01737 490.6111 370.25342 490.82199 370.55859 491.125 C 370.25386 490.80745 369.99066 490.5655 369.74805 490.35547 z M 898.9043 85.027344 C 897.08541 85.963374 893.2462 88.913005 891.67383 91.171875 C 894.44266 88.653155 897.63918 86.391514 898.9043 85.027344 z M 1204.8203 123.13281 C 1204.9956 123.43215 1205.4691 124.19641 1205.9844 124.99219 C 1205.7985 124.67033 1205.6131 124.35478 1205.4473 124.06836 C 1204.7682 122.99944 1204.645 122.83348 1204.8203 123.13281 z M 1228.2715 149.66016 L 1228.3496 149.88477 C 1229.0448 151.16037 1228.6962 150.42787 1228.2715 149.66016 z M 1645.2305 196.61523 C 1644.8546 196.61451 1643.9298 197.18782 1642.5859 198.59961 L 1642.0312 200.74414 L 1645.2852 197.17969 C 1645.4837 196.82313 1645.456 196.61567 1645.2305 196.61523 z M 1247.1152 199.8125 C 1247.3009 200.40533 1247.4594 200.90659 1247.625 201.44336 C 1247.5158 200.80327 1247.3534 200.17237 1247.1152 199.8125 z M 1639.3438 201.22852 C 1635.5443 203.59667 1631.7045 207.13018 1628.3496 211.21094 C 1627.2583 211.86941 1627.82 210.94177 1627.8242 210.64648 C 1625.5887 213.46048 1623.2808 216.8804 1626.0293 215.81445 C 1627.7633 212.7347 1628.8463 212.37511 1630.5684 208.98828 C 1632.7711 206.76484 1634.9591 205.4212 1634.9551 206.00586 C 1635.5049 205.08755 1638.7777 202.77581 1639.3438 201.22852 z M 1623.2441 218.05469 L 1620.9238 220.47656 C 1621.809 219.68816 1622.9206 218.72201 1623.2441 218.05469 z M 1620.9238 220.48047 C 1620.3661 220.97653 1619.8891 221.41239 1619.8125 221.625 L 1620.9238 220.48047 z M 1619.8145 221.625 L 1618.6973 222.7793 L 1619.8242 221.82617 C 1619.7512 221.80547 1619.7675 221.7195 1619.8145 221.625 z M 1252.5078 233.35156 C 1253.0252 235.52183 1253.6597 237.30174 1254.3711 238.93164 C 1253.8578 237.16592 1253.2838 235.08185 1252.5078 233.35156 z M 1254.375 238.92969 C 1255.0015 241.08227 1255.5387 242.74358 1256.1895 242.69336 C 1255.5588 241.45615 1254.9449 240.23776 1254.375 238.92969 z M 1596.6777 241.67188 C 1596.0026 242.24766 1595.3101 242.83527 1594.623 243.41992 C 1595.5889 242.64334 1596.2209 242.10886 1596.6777 241.67188 z M 1587.623 248.98633 L 1587.5742 249.48242 C 1587.7036 249.27867 1587.7325 249.11035 1587.623 248.98633 z M 1587.5742 249.48242 C 1586.5558 251.02673 1579.8097 254.81551 1578.1484 256.92969 C 1580.5089 255.10195 1584.5544 252.65051 1587.5254 249.88672 L 1587.5742 249.48242 z M 1270.6387 267.83984 L 1272.2559 272.17969 L 1272.8906 273.70898 L 1270.6387 267.83984 z M 1541.541 279.33789 C 1529.9891 286.57513 1544.446 278.21586 1533.2578 286.33008 L 1541.9316 280.23242 C 1540.141 281.10346 1537.7941 282.24636 1541.541 279.33789 z M 77.103516 293.31641 C 76.763986 293.53197 76.679876 293.62839 77.197266 293.44531 C 77.217466 293.37151 77.115646 293.36663 77.103516 293.31641 z M 1271.8906 295.10938 L 1272.3438 298.67383 L 1273.7793 300.16797 L 1271.8906 295.10938 z M 1507.8633 303.34766 C 1507.5033 303.39416 1505.5412 304.50257 1505.5918 304.3125 C 1502.8714 306.56253 1502.2005 307.10495 1506 304.91992 C 1507.7188 303.67311 1508.0793 303.31975 1507.8633 303.34766 z M 1513.0527 305.24609 L 1512.9961 305.27539 L 1512.8711 305.85352 C 1513.0651 305.51986 1513.0606 305.37603 1513.0527 305.24609 z M 1497.748 310.29102 C 1497.5662 310.28031 1497.3195 310.30036 1496.9941 310.35352 C 1495.6806 311.17737 1495.9761 312.07537 1495.8105 312.67188 C 1496.235 311.94547 1497.0464 311.20739 1498.1094 310.41016 C 1498.0467 310.34371 1497.9299 310.30172 1497.748 310.29102 z M 240.54492 327.43945 C 240.52162 327.51402 241.34779 328.30268 244.04883 330.75977 C 243.41827 329.806 243.15164 329.14395 242.99805 328.5918 C 242.98286 329.17313 240.58375 327.31517 240.54492 327.43945 z M 1291.043 328.94922 C 1290.8116 328.86178 1291.3487 330.40423 1290.793 330.25195 L 1292.0098 330.39062 C 1291.4123 329.36454 1291.1481 328.98896 1291.043 328.94922 z M 1439.5703 343.14453 L 1437.0762 344.81836 L 1438.6035 344.08398 C 1438.9672 343.77688 1439.2875 343.46048 1439.5703 343.14453 z M 1449.9004 343.29102 C 1449.8074 343.27332 1449.2414 343.46882 1448.5664 343.71094 C 1448.7927 343.68434 1449.1849 343.57746 1449.9004 343.29102 z M 1340.207 366.81641 C 1339.6815 367.12645 1343.0832 367.46345 1345.8965 367.88867 C 1343.9886 367.52252 1342.0662 367.24158 1340.207 366.81641 z M 1345.8965 367.88867 C 1346.636 368.04217 1347.3922 368.13624 1348.1562 368.20117 C 1347.5377 368.10957 1346.7573 368.03627 1345.8965 367.88867 z M 318.18359 415.29297 C 318.5029 415.4288 318.82522 415.59293 319.20117 415.94727 C 320.61584 417.97586 320.80267 418.74729 320.74609 419.10156 C 320.18426 418.11239 319.43109 416.98135 318.45703 415.49609 L 318.18359 415.29297 z M 318.41406 429.67773 C 318.81015 430.345 319.36236 431.27161 320.32031 432.88672 L 320.32031 432.88867 L 320.30078 432.89453 C 319.51263 431.55386 318.84249 430.40701 318.41406 429.67773 z M 564.63086 433.9668 L 560.19141 438.28711 L 562.45898 436.37109 L 564.63086 433.9668 z M 324.78711 440.09961 C 325.04952 440.03109 325.55764 440.50457 326.10938 441.50781 C 325.46265 440.85528 327.0108 444.0463 327.85156 446.11914 C 326.94211 444.49808 325.80972 442.48443 324.61328 440.34961 C 324.63854 440.2064 324.69964 440.12245 324.78711 440.09961 z M 535.34961 469.58594 L 534.34766 470.62891 L 535.57617 469.7168 L 535.34961 469.58594 z "
     id="path8" />
</svg>
